<?xml version="1.0" encoding="UTF-8"?>
<!DOCTYPE svg PUBLIC "-//W3C//DTD SVG 1.1//EN" "http://www.w3.org/Graphics/SVG/1.1/DTD/svg11.dtd">
<svg version="1.2" width="17.92mm" height="17.91mm" viewBox="-13 -14 1792 1791" preserveAspectRatio="xMidYMid" fill-rule="evenodd" stroke-width="28.222" stroke-linejoin="round" xmlns="http://www.w3.org/2000/svg" xmlns:ooo="http://xml.openoffice.org/svg/export" xmlns:xlink="http://www.w3.org/1999/xlink" xmlns:presentation="http://sun.com/xmlns/staroffice/presentation" xmlns:smil="http://www.w3.org/2001/SMIL20/" xmlns:anim="urn:oasis:names:tc:opendocument:xmlns:animation:1.0" xml:space="preserve">
 <defs class="ClipPathGroup">
  <clipPath id="presentation_clip_path" clipPathUnits="userSpaceOnUse">
   <rect x="-13" y="-14" width="1792" height="1791"/>
  </clipPath>
  <clipPath id="presentation_clip_path_shrink" clipPathUnits="userSpaceOnUse">
   <rect x="-12" y="-13" width="1789" height="1788"/>
  </clipPath>
 </defs>
 <defs class="TextShapeIndex">
  <g ooo:slide="id1" ooo:id-list="id3"/>
 </defs>
 <defs class="EmbeddedBulletChars">
  <g id="bullet-char-template-57356" transform="scale(0.00048828125,-0.00048828125)">
   <path d="M 580,1141 L 1163,571 580,0 -4,571 580,1141 Z"/>
  </g>
  <g id="bullet-char-template-57354" transform="scale(0.00048828125,-0.00048828125)">
   <path d="M 8,1128 L 1137,1128 1137,0 8,0 8,1128 Z"/>
  </g>
  <g id="bullet-char-template-10146" transform="scale(0.00048828125,-0.00048828125)">
   <path d="M 174,0 L 602,739 174,1481 1456,739 174,0 Z M 1358,739 L 309,1346 659,739 1358,739 Z"/>
  </g>
  <g id="bullet-char-template-10132" transform="scale(0.00048828125,-0.00048828125)">
   <path d="M 2015,739 L 1276,0 717,0 1260,543 174,543 174,936 1260,936 717,1481 1274,1481 2015,739 Z"/>
  </g>
  <g id="bullet-char-template-10007" transform="scale(0.00048828125,-0.00048828125)">
   <path d="M 0,-2 C -7,14 -16,27 -25,37 L 356,567 C 262,823 215,952 215,954 215,979 228,992 255,992 264,992 276,990 289,987 310,991 331,999 354,1012 L 381,999 492,748 772,1049 836,1024 860,1049 C 881,1039 901,1025 922,1006 886,937 835,863 770,784 769,783 710,716 594,584 L 774,223 C 774,196 753,168 711,139 L 727,119 C 717,90 699,76 672,76 641,76 570,178 457,381 L 164,-76 C 142,-110 111,-127 72,-127 30,-127 9,-110 8,-76 1,-67 -2,-52 -2,-32 -2,-23 -1,-13 0,-2 Z"/>
  </g>
  <g id="bullet-char-template-10004" transform="scale(0.00048828125,-0.00048828125)">
   <path d="M 285,-33 C 182,-33 111,30 74,156 52,228 41,333 41,471 41,549 55,616 82,672 116,743 169,778 240,778 293,778 328,747 346,684 L 369,508 C 377,444 397,411 428,410 L 1163,1116 C 1174,1127 1196,1133 1229,1133 1271,1133 1292,1118 1292,1087 L 1292,965 C 1292,929 1282,901 1262,881 L 442,47 C 390,-6 338,-33 285,-33 Z"/>
  </g>
  <g id="bullet-char-template-9679" transform="scale(0.00048828125,-0.00048828125)">
   <path d="M 813,0 C 632,0 489,54 383,161 276,268 223,411 223,592 223,773 276,916 383,1023 489,1130 632,1184 813,1184 992,1184 1136,1130 1245,1023 1353,916 1407,772 1407,592 1407,412 1353,268 1245,161 1136,54 992,0 813,0 Z"/>
  </g>
  <g id="bullet-char-template-8226" transform="scale(0.00048828125,-0.00048828125)">
   <path d="M 346,457 C 273,457 209,483 155,535 101,586 74,649 74,723 74,796 101,859 155,911 209,963 273,989 346,989 419,989 480,963 531,910 582,859 608,796 608,723 608,648 583,586 532,535 482,483 420,457 346,457 Z"/>
  </g>
  <g id="bullet-char-template-8211" transform="scale(0.00048828125,-0.00048828125)">
   <path d="M -4,459 L 1135,459 1135,606 -4,606 -4,459 Z"/>
  </g>
  <g id="bullet-char-template-61548" transform="scale(0.00048828125,-0.00048828125)">
   <path d="M 173,740 C 173,903 231,1043 346,1159 462,1274 601,1332 765,1332 928,1332 1067,1274 1183,1159 1299,1043 1357,903 1357,740 1357,577 1299,437 1183,322 1067,206 928,148 765,148 601,148 462,206 346,322 231,437 173,577 173,740 Z"/>
  </g>
 </defs>
 <defs class="TextEmbeddedBitmaps"/>
 <g class="SlideGroup">
  <g>
   <g id="container-id1">
    <g id="id1" class="Slide" clip-path="url(#presentation_clip_path)">
     <g class="Page">
      <g class="com.sun.star.drawing.ClosedBezierShape">
       <g id="id3">
        <rect class="BoundingBox" stroke="none" fill="none" x="-13" y="-14" width="1793" height="1793"/>
        <path fill="none" stroke="rgb(238,238,238)" stroke-width="63" stroke-linejoin="miter" d="M 668,133 C 600,115 517,105 517,105 L 375,120 264,162 193,217 274,228 328,270 351,310 349,394 403,395 439,410 468,438 491,488 504,527 484,595 561,604 589,628 612,735 483,988 421,1137 367,1272 338,1391 331,1440 333,1492 345,1523 370,1535 397,1523 429,1478 465,1410 512,1313 557,1235 585,1192 605,1200 607,1221 533,1359 544,1382 628,1436 627,1464 556,1550 517,1589 474,1622 430,1645 388,1652 341,1643 300,1626 268,1601 247,1559 242,1495 267,1374 293,1292 296,1256 310,1229 315,1168 305,1117 268,1069 233,1047 202,1040 163,1040 117,1051 85,1073 66,1090 48,1111 30,1142 19,1188 23,1224 44,1246 81,1248 108,1232 121,1207 118,1187 135,1161 164,1147 197,1148 218,1163 216,1205 200,1265 181,1350 161,1436 154,1533 C 154,1533 167,1607 167,1611 167,1616 187,1648 187,1648 L 217,1679 261,1715 322,1741 390,1746 457,1737 508,1718 537,1698 560,1679 609,1636 664,1566 702,1520 715,1491 743,1491 770,1504 810,1512 828,1510 829,1476 845,1437 871,1382 893,1345 907,1352 915,1379 898,1410 859,1512 839,1597 834,1652 841,1706 868,1722 889,1715 900,1698 977,1560 1040,1436 1149,1215 1187,1134 1237,1128 1261,1149 1273,1180 1282,1220 1316,1187 1365,1175 1411,1184 1456,1207 1482,1242 1495,1275 1497,1303 1539,1273 1582,1262 1624,1273 1668,1310 1699,1361 1707,1400 1727,1353 1742,1268 1747,1127 1728,1051 1688,959 1636,882 1613,878 1572,897 1524,897 1479,885 1432,864 1388,832 1373,804 C 1413,740 1473,686 1513,638 L 1585,545 1619,500 1651,458 1683,415 1691,390 1690,367 1672,360 1649,363 1631,366 1604,388 1585,412 1570,428 1515,496 1520,460 1542,385 1531,341 1514,331 1479,351 1456,376 1426,403 1367,342 1308,295 1303,273 1331,225 1344,179 1330,163 1299,163 1265,168 1224,183 1186,187 1253,137 1292,89 1311,51 1304,18 1253,18 C 1253,18 1216,36 1212,36 1208,36 1157,69 1157,69 L 1095,112 1052,153 962,231 923,275 892,308 868,345 850,386 829,414 790,362 735,313 701,257 678,209 672,173 668,133 Z"/>
       </g>
      </g>
     </g>
    </g>
   </g>
  </g>
 </g>
</svg>