<?xml version="1.0" encoding="UTF-8" standalone="no"?>
<!-- Generator: Adobe Illustrator 18.1.1, SVG Export Plug-In . SVG Version: 6.00 Build 0)  -->

<svg
   xmlns:dc="http://purl.org/dc/elements/1.1/"
   xmlns:cc="http://creativecommons.org/ns#"
   xmlns:rdf="http://www.w3.org/1999/02/22-rdf-syntax-ns#"
   xmlns:svg="http://www.w3.org/2000/svg"
   xmlns="http://www.w3.org/2000/svg"
   xmlns:sodipodi="http://sodipodi.sourceforge.net/DTD/sodipodi-0.dtd"
   xmlns:inkscape="http://www.inkscape.org/namespaces/inkscape"
   version="1.1"
   id="Capa_1"
   x="0px"
   y="0px"
   viewBox="0 0 486.988 486.988"
   style="enable-background:new 0 0 486.988 486.988;"
   xml:space="preserve"
   sodipodi:docname="home_b.svg"
   inkscape:version="0.92.1 r15371"><metadata
     id="metadata43"><rdf:RDF><cc:Work
         rdf:about=""><dc:format>image/svg+xml</dc:format><dc:type
           rdf:resource="http://purl.org/dc/dcmitype/StillImage" /></cc:Work></rdf:RDF></metadata><defs
     id="defs41" /><sodipodi:namedview
     pagecolor="#ffffff"
     bordercolor="#666666"
     borderopacity="1"
     objecttolerance="10"
     gridtolerance="10"
     guidetolerance="10"
     inkscape:pageopacity="0"
     inkscape:pageshadow="2"
     inkscape:window-width="716"
     inkscape:window-height="480"
     id="namedview39"
     showgrid="false"
     inkscape:zoom="0.48461152"
     inkscape:cx="243.494"
     inkscape:cy="243.494"
     inkscape:window-x="0"
     inkscape:window-y="0"
     inkscape:window-maximized="0"
     inkscape:current-layer="Capa_1" /><g
     id="g6"
     style="fill:#0fff80;fill-opacity:1"><g
       id="g4"
       style="fill:#0fff80;fill-opacity:1"><path
         d="M16.822,284.968h39.667v158.667c0,9.35,7.65,17,17,17h116.167c9.35,0,17-7.65,17-17V327.468h70.833v116.167    c0,9.35,7.65,17,17,17h110.5c9.35,0,17-7.65,17-17V284.968h48.167c6.8,0,13.033-4.25,15.583-10.483    c2.55-6.233,1.133-13.6-3.683-18.417L260.489,31.385c-6.517-6.517-17.283-6.8-23.8-0.283L5.206,255.785    c-5.1,4.817-6.517,12.183-3.967,18.7C3.789,281.001,10.022,284.968,16.822,284.968z M248.022,67.368l181.333,183.6h-24.367    c-9.35,0-17,7.65-17,17v158.667h-76.5V310.468c0-9.35-7.65-17-17-17H189.656c-9.35,0-17,7.65-17,17v116.167H90.489V267.968    c0-9.35-7.65-17-17-17H58.756L248.022,67.368z"
         id="path2"
         style="fill:#0fff80;fill-opacity:1" /></g></g><g
     id="g8" /><g
     id="g10" /><g
     id="g12" /><g
     id="g14" /><g
     id="g16" /><g
     id="g18" /><g
     id="g20" /><g
     id="g22" /><g
     id="g24" /><g
     id="g26" /><g
     id="g28" /><g
     id="g30" /><g
     id="g32" /><g
     id="g34" /><g
     id="g36" /></svg>