<?xml version="1.0" encoding="UTF-8"?>
<!DOCTYPE svg PUBLIC "-//W3C//DTD SVG 1.1//EN" "http://www.w3.org/Graphics/SVG/1.1/DTD/svg11.dtd">
<svg version="1.2" width="262.51mm" height="262.5mm" viewBox="0 1 26251 26250" preserveAspectRatio="xMidYMid" fill-rule="evenodd" stroke-width="28.222" stroke-linejoin="round" xmlns="http://www.w3.org/2000/svg" xmlns:ooo="http://xml.openoffice.org/svg/export" xmlns:xlink="http://www.w3.org/1999/xlink" xmlns:presentation="http://sun.com/xmlns/staroffice/presentation" xmlns:smil="http://www.w3.org/2001/SMIL20/" xmlns:anim="urn:oasis:names:tc:opendocument:xmlns:animation:1.0" xml:space="preserve">
 <defs class="ClipPathGroup">
  <clipPath id="presentation_clip_path" clipPathUnits="userSpaceOnUse">
   <rect x="0" y="1" width="26251" height="26250"/>
  </clipPath>
  <clipPath id="presentation_clip_path_shrink" clipPathUnits="userSpaceOnUse">
   <rect x="26" y="27" width="26199" height="26198"/>
  </clipPath>
 </defs>
 <defs class="TextShapeIndex">
  <g ooo:slide="id1" ooo:id-list="id3"/>
 </defs>
 <defs class="EmbeddedBulletChars">
  <g id="bullet-char-template-57356" transform="scale(0.00048828125,-0.00048828125)">
   <path d="M 580,1141 L 1163,571 580,0 -4,571 580,1141 Z"/>
  </g>
  <g id="bullet-char-template-57354" transform="scale(0.00048828125,-0.00048828125)">
   <path d="M 8,1128 L 1137,1128 1137,0 8,0 8,1128 Z"/>
  </g>
  <g id="bullet-char-template-10146" transform="scale(0.00048828125,-0.00048828125)">
   <path d="M 174,0 L 602,739 174,1481 1456,739 174,0 Z M 1358,739 L 309,1346 659,739 1358,739 Z"/>
  </g>
  <g id="bullet-char-template-10132" transform="scale(0.00048828125,-0.00048828125)">
   <path d="M 2015,739 L 1276,0 717,0 1260,543 174,543 174,936 1260,936 717,1481 1274,1481 2015,739 Z"/>
  </g>
  <g id="bullet-char-template-10007" transform="scale(0.00048828125,-0.00048828125)">
   <path d="M 0,-2 C -7,14 -16,27 -25,37 L 356,567 C 262,823 215,952 215,954 215,979 228,992 255,992 264,992 276,990 289,987 310,991 331,999 354,1012 L 381,999 492,748 772,1049 836,1024 860,1049 C 881,1039 901,1025 922,1006 886,937 835,863 770,784 769,783 710,716 594,584 L 774,223 C 774,196 753,168 711,139 L 727,119 C 717,90 699,76 672,76 641,76 570,178 457,381 L 164,-76 C 142,-110 111,-127 72,-127 30,-127 9,-110 8,-76 1,-67 -2,-52 -2,-32 -2,-23 -1,-13 0,-2 Z"/>
  </g>
  <g id="bullet-char-template-10004" transform="scale(0.00048828125,-0.00048828125)">
   <path d="M 285,-33 C 182,-33 111,30 74,156 52,228 41,333 41,471 41,549 55,616 82,672 116,743 169,778 240,778 293,778 328,747 346,684 L 369,508 C 377,444 397,411 428,410 L 1163,1116 C 1174,1127 1196,1133 1229,1133 1271,1133 1292,1118 1292,1087 L 1292,965 C 1292,929 1282,901 1262,881 L 442,47 C 390,-6 338,-33 285,-33 Z"/>
  </g>
  <g id="bullet-char-template-9679" transform="scale(0.00048828125,-0.00048828125)">
   <path d="M 813,0 C 632,0 489,54 383,161 276,268 223,411 223,592 223,773 276,916 383,1023 489,1130 632,1184 813,1184 992,1184 1136,1130 1245,1023 1353,916 1407,772 1407,592 1407,412 1353,268 1245,161 1136,54 992,0 813,0 Z"/>
  </g>
  <g id="bullet-char-template-8226" transform="scale(0.00048828125,-0.00048828125)">
   <path d="M 346,457 C 273,457 209,483 155,535 101,586 74,649 74,723 74,796 101,859 155,911 209,963 273,989 346,989 419,989 480,963 531,910 582,859 608,796 608,723 608,648 583,586 532,535 482,483 420,457 346,457 Z"/>
  </g>
  <g id="bullet-char-template-8211" transform="scale(0.00048828125,-0.00048828125)">
   <path d="M -4,459 L 1135,459 1135,606 -4,606 -4,459 Z"/>
  </g>
  <g id="bullet-char-template-61548" transform="scale(0.00048828125,-0.00048828125)">
   <path d="M 173,740 C 173,903 231,1043 346,1159 462,1274 601,1332 765,1332 928,1332 1067,1274 1183,1159 1299,1043 1357,903 1357,740 1357,577 1299,437 1183,322 1067,206 928,148 765,148 601,148 462,206 346,322 231,437 173,577 173,740 Z"/>
  </g>
 </defs>
 <defs class="TextEmbeddedBitmaps"/>
 <g class="SlideGroup">
  <g>
   <g id="container-id1">
    <g id="id1" class="Slide" clip-path="url(#presentation_clip_path)">
     <g class="Page">
      <g class="com.sun.star.drawing.ClosedBezierShape">
       <g id="id3">
        <rect class="BoundingBox" stroke="none" fill="none" x="0" y="1" width="26252" height="26252"/>
        <path fill="rgb(238,238,238)" stroke="none" d="M 22609,4040 C 20131,1454 16703,-6 13122,1 5884,-8 9,5852 0,13090 -5,16669 1455,20094 4039,22569 4047,22577 4049,22588 4057,22595 4133,22668 4215,22730 4292,22800 4503,22987 4714,23181 4936,23362 5055,23456 5179,23550 5301,23636 5511,23792 5720,23949 5940,24093 6089,24187 6242,24281 6395,24375 6598,24496 6799,24619 7008,24731 7185,24824 7366,24905 7546,24990 7743,25084 7937,25178 8138,25262 8340,25346 8542,25412 8747,25485 8951,25558 9127,25626 9323,25686 9544,25752 9771,25804 9996,25859 10183,25905 10365,25957 10558,25995 10817,26047 11079,26079 11342,26115 11504,26137 11662,26169 11826,26185 12256,26227 12689,26251 13125,26251 13562,26251 13995,26227 14424,26185 14588,26169 14747,26137 14909,26115 15171,26079 15434,26047 15692,25995 15880,25957 16067,25901 16255,25859 16480,25804 16706,25752 16928,25686 17124,25626 17313,25553 17504,25485 17695,25418 17913,25345 18112,25262 18312,25180 18508,25083 18705,24990 18885,24905 19066,24824 19243,24731 19452,24619 19653,24496 19856,24375 20008,24281 20162,24196 20311,24093 20530,23949 20740,23793 20950,23636 21072,23542 21196,23458 21315,23362 21537,23184 21748,22995 21959,22800 22036,22730 22118,22668 22194,22595 22201,22588 22204,22577 22212,22569 27438,17562 27616,9266 22609,4040 Z M 20502,21588 C 20332,21738 20156,21881 19978,22018 19873,22099 19768,22179 19660,22255 19490,22378 19318,22494 19142,22606 19015,22688 18885,22766 18754,22843 18589,22937 18421,23031 18251,23124 18101,23201 17948,23273 17795,23345 17641,23416 17471,23492 17306,23558 17140,23625 16963,23688 16790,23746 16632,23800 16473,23856 16313,23904 16126,23960 15930,24006 15736,24053 15584,24089 15434,24129 15280,24159 15058,24202 14831,24232 14603,24263 14474,24280 14346,24303 14215,24316 13856,24351 13491,24372 13123,24372 12754,24372 12390,24351 12030,24316 11900,24303 11771,24280 11642,24263 11414,24232 11187,24202 10965,24159 10811,24129 10661,24089 10510,24053 10316,24006 10123,23959 9932,23904 9772,23856 9614,23800 9455,23746 9282,23686 9108,23625 8940,23558 8771,23492 8612,23419 8451,23345 8289,23271 8144,23201 7994,23124 7824,23036 7657,22943 7492,22843 7361,22766 7230,22688 7103,22606 6928,22494 6755,22378 6585,22255 6478,22179 6373,22099 6268,22018 6090,21881 5913,21737 5743,21588 5702,21557 5664,21518 5624,21482 5666,18294 7714,15479 10735,14458 12245,15176 13998,15176 15509,14458 18529,15479 20578,18294 20620,21482 20580,21518 20543,21553 20502,21588 Z M 9854,7516 C 10868,5711 13154,5070 14959,6085 16763,7100 17404,9386 16389,11190 16052,11789 15558,12284 14959,12621 14954,12621 14948,12621 14943,12626 14694,12765 14432,12876 14159,12958 14111,12972 14065,12991 14014,13003 13920,13027 13822,13044 13725,13061 13544,13093 13360,13111 13175,13117 L 13068,13117 C 12884,13111 12700,13093 12518,13061 12424,13044 12325,13027 12229,13003 12180,12991 12136,12972 12084,12958 11812,12876 11549,12765 11301,12626 L 11284,12621 C 9479,11606 8839,9320 9854,7516 Z M 22282,19624 C 21681,16818 19834,14440 17264,13163 19365,10876 19212,7318 16925,5218 14637,3118 11079,3270 8979,5558 7005,7709 7005,11013 8979,13163 6410,14440 4563,16818 3961,19624 367,14561 1558,7544 6620,3950 11682,356 18700,1547 22293,6609 23644,8512 24370,10788 24368,13122 24368,15454 23639,17727 22282,19624 Z"/>
       </g>
      </g>
     </g>
    </g>
   </g>
  </g>
 </g>
</svg>